<mxfile host="app.diagrams.net" agent="Mozilla/5.0 (Windows NT 10.0; Win64; x64) AppleWebKit/537.36 (KHTML, like Gecko) Chrome/139.0.0.0 Safari/537.36" version="28.1.0">
  <diagram id="DTM-ACE-Academic-Enhanced" name="DTM-ACE模型优化版">
    <mxGraphModel dx="811" dy="425" grid="1" gridSize="10" guides="1" tooltips="1" connect="1" arrows="1" fold="1" page="1" pageScale="1" pageWidth="827" pageHeight="1169" math="0" shadow="0">
      <root>
        <mxCell id="0" />
        <mxCell id="1" parent="0" />
        <mxCell id="background" value="" style="rounded=1;whiteSpace=wrap;html=1;fillColor=#ffffff;strokeColor=#dee2e6;strokeWidth=1;dashed=1;" parent="1" vertex="1">
          <mxGeometry x="39.5" y="70" width="747" height="970" as="geometry" />
        </mxCell>
        <mxCell id="title-bg" value="" style="rounded=0;whiteSpace=wrap;html=1;fillColor=#f8f9fa;strokeColor=#dee2e6;strokeWidth=1;" parent="1" vertex="1">
          <mxGeometry x="60" y="100" width="707" height="60" as="geometry" />
        </mxCell>
        <mxCell id="title" value="DTM-ACE: Digital Transformation Maturity Assessment for Adult &amp; Continuing Education" style="text;html=1;strokeColor=none;fillColor=none;align=center;verticalAlign=middle;whiteSpace=wrap;rounded=0;fontSize=14;fontStyle=1;fontColor=#212529;" parent="1" vertex="1">
          <mxGeometry x="80" y="110" width="667" height="20" as="geometry" />
        </mxCell>
        <mxCell id="subtitle" value="成人教育数字化转型成熟度诊断模型" style="text;html=1;strokeColor=none;fillColor=none;align=center;verticalAlign=middle;whiteSpace=wrap;rounded=0;fontSize=12;fontColor=#6c757d;" parent="1" vertex="1">
          <mxGeometry x="80" y="130" width="667" height="20" as="geometry" />
        </mxCell>
        <mxCell id="core-shadow" value="" style="ellipse;whiteSpace=wrap;html=1;fillColor=#e9ecef;strokeColor=none;" parent="1" vertex="1">
          <mxGeometry x="318" y="408" width="192" height="96" as="geometry" />
        </mxCell>
        <mxCell id="core-center" value="Digital Transformation&#xa;Maturity&#xa;数字化转型成熟度" style="ellipse;whiteSpace=wrap;html=1;fillColor=#ffffff;strokeColor=#495057;fontSize=17;fontStyle=1;strokeWidth=2;fontColor=#212529;" parent="1" vertex="1">
          <mxGeometry x="313" y="403" width="192" height="96" as="geometry" />
        </mxCell>
        <mxCell id="dot1" value="1" style="ellipse;whiteSpace=wrap;html=1;fillColor=#495057;strokeColor=none;fontSize=10;fontColor=#ffffff;fontStyle=1;" parent="1" vertex="1">
          <mxGeometry x="403" y="200" width="20" height="20" as="geometry" />
        </mxCell>
        <mxCell id="dot2" value="2" style="ellipse;whiteSpace=wrap;html=1;fillColor=#495057;strokeColor=none;fontSize=10;fontColor=#ffffff;fontStyle=1;" parent="1" vertex="1">
          <mxGeometry x="650" y="320" width="20" height="20" as="geometry" />
        </mxCell>
        <mxCell id="dot3" value="3" style="ellipse;whiteSpace=wrap;html=1;fillColor=#495057;strokeColor=none;fontSize=10;fontColor=#ffffff;fontStyle=1;" parent="1" vertex="1">
          <mxGeometry x="650" y="580" width="20" height="20" as="geometry" />
        </mxCell>
        <mxCell id="dot4" value="4" style="ellipse;whiteSpace=wrap;html=1;fillColor=#495057;strokeColor=none;fontSize=10;fontColor=#ffffff;fontStyle=1;" parent="1" vector="1">
          <mxGeometry x="157" y="580" width="20" height="20" as="geometry" />
        </mxCell>
        <mxCell id="dot5" value="5" style="ellipse;whiteSpace=wrap;html=1;fillColor=#495057;strokeColor=none;fontSize=10;fontColor=#ffffff;fontStyle=1;" parent="1" vertex="1">
          <mxGeometry x="157" y="320" width="20" height="20" as="geometry" />
        </mxCell>
        <mxCell id="dim1-shadow" value="" style="rounded=1;whiteSpace=wrap;html=1;fillColor=#e9ecef;strokeColor=none;" parent="1" vertex="1">
          <mxGeometry x="315" y="202" width="178" height="58" as="geometry" />
        </mxCell>
        <mxCell id="dim1" value="Strategy &amp;amp; Leadership&#xa;战略与领导力 (SL)" style="rounded=1;whiteSpace=wrap;html=1;fillColor=#ffffff;strokeColor=#6c757d;fontSize=14;fontStyle=1;strokeWidth=1.5;fontColor=#212529;" parent="1" vertex="1">
          <mxGeometry x="313" y="200" width="178" height="58" as="geometry" />
        </mxCell>
        <mxCell id="dim2-shadow" value="" style="rounded=1;whiteSpace=wrap;html=1;fillColor=#e9ecef;strokeColor=none;" parent="1" vertex="1">
          <mxGeometry x="542" y="322" width="178" height="58" as="geometry" />
        </mxCell>
        <mxCell id="dim2" value="Teaching &amp;amp; Learning Innovation&#xa;教学与学习创新 (TLI)" style="rounded=1;whiteSpace=wrap;html=1;fillColor=#ffffff;strokeColor=#6c757d;fontSize=14;fontStyle=1;strokeWidth=1.5;fontColor=#212529;" parent="1" vertex="1">
          <mxGeometry x="540" y="320" width="178" height="58" as="geometry" />
        </mxCell>
        <mxCell id="dim3-shadow" value="" style="rounded=1;whiteSpace=wrap;html=1;fillColor=#e9ecef;strokeColor=none;" parent="1" vertex="1">
          <mxGeometry x="542" y="582" width="178" height="58" as="geometry" />
        </mxCell>
        <mxCell id="dim3" value="Resources &amp;amp; Tech Infrastructure&#xa;资源与技术基建 (RTI)" style="rounded=1;whiteSpace=wrap;html=1;fillColor=#ffffff;strokeColor=#6c757d;fontSize=14;fontStyle=1;strokeWidth=1.5;fontColor=#212529;" parent="1" vertex="1">
          <mxGeometry x="540" y="580" width="178" height="58" as="geometry" />
        </mxCell>
        <mxCell id="dim4-shadow" value="" style="rounded=1;whiteSpace=wrap;html=1;fillColor=#e9ecef;strokeColor=none;" parent="1" vertex="1">
          <mxGeometry x="109" y="582" width="178" height="58" as="geometry" />
        </mxCell>
        <mxCell id="dim4" value="Organization &amp;amp; Cultural Support&#xa;组织与文化支持 (OCS)" style="rounded=1;whiteSpace=wrap;html=1;fillColor=#ffffff;strokeColor=#6c757d;fontSize=14;fontStyle=1;strokeWidth=1.5;fontColor=#212529;" parent="1" vertex="1">
          <mxGeometry x="107" y="580" width="178" height="58" as="geometry" />
        </mxCell>
        <mxCell id="dim5-shadow" value="" style="rounded=1;whiteSpace=wrap;html=1;fillColor=#e9ecef;strokeColor=none;" parent="1" vertex="1">
          <mxGeometry x="109" y="322" width="178" height="58" as="geometry" />
        </mxCell>
        <mxCell id="dim5" value="Evaluation &amp;amp; Continuous Improvement&#xa;评价与持续改进 (ECI)" style="rounded=1;whiteSpace=wrap;html=1;fillColor=#ffffff;strokeColor=#6c757d;fontSize=14;fontStyle=1;strokeWidth=1.5;fontColor=#212529;" parent="1" vertex="1">
          <mxGeometry x="107" y="320" width="178" height="58" as="geometry" />
        </mxCell>
        <mxCell id="sl-indicators" value="SL1 转型愿景清晰度 Vision Clarity&#xa;SL2 资源配置与规划 Resource Planning&#xa;SL3 跨部门协同机制 Cross-dept Coordination&#xa;SL4 决策层数字素养 Leadership Digital Literacy" style="text;html=1;strokeColor=#adb5bd;fillColor=#f8f9fa;align=left;verticalAlign=top;whiteSpace=wrap;rounded=1;fontSize=9;fontColor=#495057;strokeWidth=1;" parent="1" vertex="1">
          <mxGeometry x="520" y="180" width="240" height="78" as="geometry" />
        </mxCell>
        <mxCell id="tli-indicators" value="TLI1 混合式教学成熟度 Blended Learning Maturity&#xa;TLI2 学习数据分析应用 Learning Analytics Application&#xa;TLI3 教师数字化能力 Teacher Digital Competency&#xa;TLI4 学习者数字体验 Learner Digital Experience" style="text;html=1;strokeColor=#adb5bd;fillColor=#f8f9fa;align=left;verticalAlign=top;whiteSpace=wrap;rounded=1;fontSize=12;fontColor=#495057;strokeWidth=1;" parent="1" vertex="1">
          <mxGeometry x="540" y="400" width="240" height="130" as="geometry" />
        </mxCell>
        <mxCell id="rti-indicators" value="RTI1 数字资源体系性 Digital Resource Systematicness&#xa;RTI2 平台一体化稳定性 Platform Integration &amp;amp; Stability&#xa;RTI3 技术支持响应度 Technical Support Responsiveness&#xa;RTI4 数据安全保护 Data Security &amp;amp; Privacy Protection" style="text;html=1;strokeColor=#adb5bd;fillColor=#f8f9fa;align=left;verticalAlign=top;whiteSpace=wrap;rounded=1;fontSize=12;fontColor=#495057;strokeWidth=1;" parent="1" vertex="1">
          <mxGeometry x="500" y="660" width="280" height="130" as="geometry" />
        </mxCell>
        <mxCell id="ocs-indicators" value="OCS1 激励认可机制 Incentive &amp;amp; Recognition Mechanism&#xa;OCS2 教师专业发展 Teacher Professional Development&#xa;OCS3 变革管理沟通 Change Management &amp;amp; Communication&#xa;OCS4 开放合作生态 Open Collaboration Ecosystem" style="text;html=1;strokeColor=#adb5bd;fillColor=#f8f9fa;align=left;verticalAlign=top;whiteSpace=wrap;rounded=1;fontSize=12;fontColor=#495057;strokeWidth=1;" parent="1" vertex="1">
          <mxGeometry x="67" y="660" width="303" height="130" as="geometry" />
        </mxCell>
        <mxCell id="eci-indicators" value="ECI1 转型评估框架 Transformation Assessment Framework&#xa;ECI2 教学质量监控 Teaching Quality Monitoring&#xa;ECI3 多元化评价 Diversified Assessment&#xa;ECI4 反馈优化闭环 Feedback &amp;amp; Optimization Loop" style="text;html=1;strokeColor=#adb5bd;fillColor=#f8f9fa;align=left;verticalAlign=top;whiteSpace=wrap;rounded=1;fontSize=12;fontColor=#495057;strokeWidth=1;" parent="1" vertex="1">
          <mxGeometry x="43" y="400" width="270" height="110" as="geometry" />
        </mxCell>
        <mxCell id="line1" value="" style="endArrow=none;html=1;strokeColor=#adb5bd;strokeWidth=2;endSize=0;" parent="1" source="core-center" target="dim1" edge="1">
          <mxGeometry width="50" height="50" relative="1" as="geometry">
            <mxPoint x="409" y="403" as="sourcePoint" />
            <mxPoint x="409" y="258" as="targetPoint" />
          </mxGeometry>
        </mxCell>
        <mxCell id="line2" value="" style="endArrow=none;html=1;strokeColor=#adb5bd;strokeWidth=2;endSize=0;" parent="1" source="core-center" target="dim2" edge="1">
          <mxGeometry width="50" height="50" relative="1" as="geometry">
            <mxPoint x="505" y="451" as="sourcePoint" />
            <mxPoint x="540" y="349" as="targetPoint" />
          </mxGeometry>
        </mxCell>
        <mxCell id="line3" value="" style="endArrow=none;html=1;strokeColor=#adb5bd;strokeWidth=2;endSize=0;" parent="1" source="core-center" target="dim3" edge="1">
          <mxGeometry width="50" height="50" relative="1" as="geometry">
            <mxPoint x="505" y="499" as="sourcePoint" />
            <mxPoint x="540" y="580" as="targetPoint" />
          </mxGeometry>
        </mxCell>
        <mxCell id="line4" value="" style="endArrow=none;html=1;strokeColor=#adb5bd;strokeWidth=2;endSize=0;" parent="1" source="core-center" target="dim4" edge="1">
          <mxGeometry width="50" height="50" relative="1" as="geometry">
            <mxPoint x="313" y="499" as="sourcePoint" />
            <mxPoint x="285" y="580" as="targetPoint" />
          </mxGeometry>
        </mxCell>
        <mxCell id="line5" value="" style="endArrow=none;html=1;strokeColor=#adb5bd;strokeWidth=2;endSize=0;" parent="1" source="core-center" target="dim5" edge="1">
          <mxGeometry width="50" height="50" relative="1" as="geometry">
            <mxPoint x="313" y="451" as="sourcePoint" />
            <mxPoint x="285" y="349" as="targetPoint" />
          </mxGeometry>
        </mxCell>
        <mxCell id="indicator-line1" value="" style="endArrow=none;html=1;strokeColor=#dee2e6;strokeWidth=1;dashed=1;dashPattern=3 3;" parent="1" source="dim1" target="sl-indicators" edge="1">
          <mxGeometry width="50" height="50" relative="1" as="geometry">
            <mxPoint x="491" y="229" as="sourcePoint" />
            <mxPoint x="520" y="219" as="targetPoint" />
          </mxGeometry>
        </mxCell>
        <mxCell id="indicator-line2" value="" style="endArrow=none;html=1;strokeColor=#dee2e6;strokeWidth=1;dashed=1;dashPattern=3 3;" parent="1" source="dim2" target="tli-indicators" edge="1">
          <mxGeometry width="50" height="50" relative="1" as="geometry">
            <mxPoint x="629" y="378" as="sourcePoint" />
            <mxPoint x="629" y="400" as="targetPoint" />
          </mxGeometry>
        </mxCell>
        <mxCell id="indicator-line3" value="" style="endArrow=none;html=1;strokeColor=#dee2e6;strokeWidth=1;dashed=1;dashPattern=3 3;" parent="1" source="dim3" target="rti-indicators" edge="1">
          <mxGeometry width="50" height="50" relative="1" as="geometry">
            <mxPoint x="629" y="638" as="sourcePoint" />
            <mxPoint x="629" y="660" as="targetPoint" />
          </mxGeometry>
        </mxCell>
        <mxCell id="indicator-line4" value="" style="endArrow=none;html=1;strokeColor=#dee2e6;strokeWidth=1;dashed=1;dashPattern=3 3;" parent="1" source="dim4" target="ocs-indicators" edge="1">
          <mxGeometry width="50" height="50" relative="1" as="geometry">
            <mxPoint x="196" y="638" as="sourcePoint" />
            <mxPoint x="196" y="660" as="targetPoint" />
          </mxGeometry>
        </mxCell>
        <mxCell id="indicator-line5" value="" style="endArrow=none;html=1;strokeColor=#dee2e6;strokeWidth=1;dashed=1;dashPattern=3 3;" parent="1" source="dim5" target="eci-indicators" edge="1">
          <mxGeometry width="50" height="50" relative="1" as="geometry">
            <mxPoint x="196" y="378" as="sourcePoint" />
            <mxPoint x="196" y="400" as="targetPoint" />
          </mxGeometry>
        </mxCell>
        <mxCell id="layers-title" value="Model Structure 模型结构" style="text;html=1;strokeColor=none;fillColor=none;align=left;verticalAlign=middle;whiteSpace=wrap;rounded=0;fontSize=14;fontStyle=1;fontColor=#212529;" parent="1" vertex="1">
          <mxGeometry x="80" y="800" width="200" height="20" as="geometry" />
        </mxCell>
        <mxCell id="layer1" value="Core Layer 核心层" style="text;html=1;strokeColor=none;fillColor=none;align=left;verticalAlign=middle;whiteSpace=wrap;rounded=0;fontSize=13;fontColor=#495057;" parent="1" vertex="1">
          <mxGeometry x="80" y="828" width="120" height="20" as="geometry" />
        </mxCell>
        <mxCell id="layer1-desc" value="Digital Transformation Maturity Assessment 数字化转型成熟度综合评价" style="text;html=1;strokeColor=none;fillColor=none;align=left;verticalAlign=middle;whiteSpace=wrap;rounded=0;fontSize=13;fontColor=#6c757d;" parent="1" vertex="1">
          <mxGeometry x="249" y="828" width="430" height="20" as="geometry" />
        </mxCell>
        <mxCell id="layer2" value="Dimension Layer 维度层" style="text;html=1;strokeColor=none;fillColor=none;align=left;verticalAlign=middle;whiteSpace=wrap;rounded=0;fontSize=13;fontColor=#495057;" parent="1" vertex="1">
          <mxGeometry x="80" y="848" width="150" height="20" as="geometry" />
        </mxCell>
        <mxCell id="layer2-desc" value="Five Primary Assessment Dimensions 五个主要评估维度" style="text;html=1;strokeColor=none;fillColor=none;align=left;verticalAlign=middle;whiteSpace=wrap;rounded=0;fontSize=13;fontColor=#6c757d;" parent="1" vertex="1">
          <mxGeometry x="249" y="848" width="400" height="20" as="geometry" />
        </mxCell>
        <mxCell id="layer3" value="Indicator Layer 指标层" style="text;html=1;strokeColor=none;fillColor=none;align=left;verticalAlign=middle;whiteSpace=wrap;rounded=0;fontSize=13;fontColor=#495057;" parent="1" vertex="1">
          <mxGeometry x="80" y="868" width="150" height="20" as="geometry" />
        </mxCell>
        <mxCell id="layer3-desc" value="Twenty Secondary Assessment Indicators 二十个具体评估指标" style="text;html=1;strokeColor=none;fillColor=none;align=left;verticalAlign=middle;whiteSpace=wrap;rounded=0;fontSize=13;fontColor=#6c757d;" parent="1" vertex="1">
          <mxGeometry x="249" y="868" width="400" height="20" as="geometry" />
        </mxCell>
        <mxCell id="application-title" value="Application 应用方式" style="text;html=1;strokeColor=none;fillColor=none;align=left;verticalAlign=middle;whiteSpace=wrap;rounded=0;fontSize=13;fontStyle=1;fontColor=#212529;" parent="1" vertex="1">
          <mxGeometry x="80" y="910" width="200" height="20" as="geometry" />
        </mxCell>
        <mxCell id="application-desc" value="• Institutional Self-Assessment 机构自我评估 • External Diagnostic Review 外部诊断评估&#xa;• Benchmarking Analysis 对标分析 • Continuous Improvement Planning 持续改进规划" style="text;html=1;strokeColor=#adb5bd;fillColor=#f8f9fa;align=left;verticalAlign=top;whiteSpace=wrap;rounded=1;fontSize=12;fontColor=#495057;strokeWidth=1;" parent="1" vertex="1">
          <mxGeometry x="80" y="930" width="600" height="40" as="geometry" />
        </mxCell>
        <mxCell id="decoration-line1" value="" style="endArrow=none;html=1;strokeColor=#dee2e6;strokeWidth=1;" parent="1" edge="1">
          <mxGeometry width="50" height="50" relative="1" as="geometry">
            <mxPoint x="79.5" y="800" as="sourcePoint" />
            <mxPoint x="746.5" y="800" as="targetPoint" />
          </mxGeometry>
        </mxCell>
        <mxCell id="decoration-line2" value="" style="endArrow=none;html=1;strokeColor=#dee2e6;strokeWidth=1;" parent="1" edge="1">
          <mxGeometry width="50" height="50" relative="1" as="geometry">
            <mxPoint x="80" y="893" as="sourcePoint" />
            <mxPoint x="747" y="893" as="targetPoint" />
          </mxGeometry>
        </mxCell>
      </root>
    </mxGraphModel>
  </diagram>
</mxfile>
